{
  "accessors": [
    {
      "bufferView": 2,
      "componentType": 5126,
      "count": 2616,
      "max": [
        3.1707499027252197,
        6.33204984664917,
        7.0342698097229
      ],
      "min": [
        -3.1707499027252197,
        0.6019899845123291,
        -6.845402240753174
      ],
      "type": "VEC3"
    },
    {
      "bufferView": 2,
      "byteOffset": 31392,
      "componentType": 5126,
      "count": 2616,
      "max": [
        1.0,
        1.0,
        1.0
      ],
      "min": [
        -1.0,
        -1.0,
        -1.0
      ],
      "type": "VEC3"
    },
    {
      "bufferView": 1,
      "componentType": 5126,
      "count": 2616,
      "max": [
        0.9934269785881042,
        0.9975619912147522
      ],
      "min": [
        0.0008960000122897327,
        0.0036609999369829893
      ],
      "type": "VEC2"
    },
    {
      "bufferView": 1,
      "byteOffset": 20928,
      "componentType": 5126,
      "count": 2616,
      "max": [
        0.0,
        1.0
      ],
      "min": [
        0.0,
        1.0
      ],
      "type": "VEC2"
    },
    {
      "bufferView": 1,
      "byteOffset": 41856,
      "componentType": 5126,
      "count": 2616,
      "max": [
        0.9934269785881042,
        0.9975619912147522
      ],
      "min": [
        0.0008960000122897327,
        0.0036609999369829893
      ],
      "type": "VEC2"
    },
    {
      "bufferView": 1,
      "byteOffset": 62784,
      "componentType": 5126,
      "count": 2616,
      "max": [
        0.9934269785881042,
        0.9975619912147522
      ],
      "min": [
        0.0008960000122897327,
        0.0036609999369829893
      ],
      "type": "VEC2"
    },
    {
      "bufferView": 1,
      "byteOffset": 83712,
      "componentType": 5126,
      "count": 2616,
      "max": [
        0.9934269785881042,
        0.9975619912147522
      ],
      "min": [
        0.0008960000122897327,
        0.0036609999369829893
      ],
      "type": "VEC2"
    },
    {
      "bufferView": 0,
      "componentType": 5125,
      "count": 6372,
      "type": "SCALAR"
    },
    {
      "bufferView": 2,
      "byteOffset": 62784,
      "componentType": 5126,
      "count": 35,
      "max": [
        1.2595999240875244,
        2.8440499305725098,
        6.2671799659729
      ],
      "min": [
        -1.2595999240875244,
        0.9453970193862915,
        3.187969923019409
      ],
      "type": "VEC3"
    },
    {
      "bufferView": 2,
      "byteOffset": 63204,
      "componentType": 5126,
      "count": 35,
      "max": [
        0.9503859877586365,
        0.9995765686035156,
        0.9840561747550964
      ],
      "min": [
        -0.9503859877586365,
        -0.13885147869586945,
        0.029100609943270683
      ],
      "type": "VEC3"
    },
    {
      "bufferView": 1,
      "byteOffset": 104640,
      "componentType": 5126,
      "count": 35,
      "max": [
        0.4955587089061737,
        0.6986910104751587
      ],
      "min": [
        0.06420999765396118,
        0.004598999861627817
      ],
      "type": "VEC2"
    },
    {
      "bufferView": 1,
      "byteOffset": 104920,
      "componentType": 5126,
      "count": 35,
      "max": [
        0.0,
        1.0
      ],
      "min": [
        0.0,
        1.0
      ],
      "type": "VEC2"
    },
    {
      "bufferView": 1,
      "byteOffset": 105200,
      "componentType": 5126,
      "count": 35,
      "max": [
        0.4955587089061737,
        0.6986910104751587
      ],
      "min": [
        0.06420999765396118,
        0.004598999861627817
      ],
      "type": "VEC2"
    },
    {
      "bufferView": 1,
      "byteOffset": 105480,
      "componentType": 5126,
      "count": 35,
      "max": [
        0.4955587089061737,
        0.6986910104751587
      ],
      "min": [
        0.06420999765396118,
        0.004598999861627817
      ],
      "type": "VEC2"
    },
    {
      "bufferView": 1,
      "byteOffset": 105760,
      "componentType": 5126,
      "count": 35,
      "max": [
        0.4955587089061737,
        0.6986910104751587
      ],
      "min": [
        0.06420999765396118,
        0.004598999861627817
      ],
      "type": "VEC2"
    },
    {
      "bufferView": 0,
      "byteOffset": 25488,
      "componentType": 5125,
      "count": 102,
      "type": "SCALAR"
    },
    {
      "bufferView": 2,
      "byteOffset": 63624,
      "componentType": 5126,
      "count": 305,
      "max": [
        3.259598731994629,
        9.47367000579834,
        6.478869915008545
      ],
      "min": [
        1.9582595825195313,
        0.7622388601303101,
        -3.611340045928955
      ],
      "type": "VEC3"
    },
    {
      "bufferView": 2,
      "byteOffset": 67284,
      "componentType": 5126,
      "count": 305,
      "max": [
        0.9982858300209045,
        0.9977477192878723,
        1.0
      ],
      "min": [
        -0.9982872009277344,
        -0.9982873201370239,
        -1.0
      ],
      "type": "VEC3"
    },
    {
      "bufferView": 1,
      "byteOffset": 106040,
      "componentType": 5126,
      "count": 305,
      "max": [
        0.6230999827384949,
        0.9976029992103577
      ],
      "min": [
        0.008812000043690205,
        0.32850098609924316
      ],
      "type": "VEC2"
    },
    {
      "bufferView": 1,
      "byteOffset": 108480,
      "componentType": 5126,
      "count": 305,
      "max": [
        0.0,
        1.0
      ],
      "min": [
        0.0,
        1.0
      ],
      "type": "VEC2"
    },
    {
      "bufferView": 1,
      "byteOffset": 110920,
      "componentType": 5126,
      "count": 305,
      "max": [
        0.6230999827384949,
        0.9976029992103577
      ],
      "min": [
        0.008812000043690205,
        0.32850098609924316
      ],
      "type": "VEC2"
    },
    {
      "bufferView": 1,
      "byteOffset": 113360,
      "componentType": 5126,
      "count": 305,
      "max": [
        0.6230999827384949,
        0.9976029992103577
      ],
      "min": [
        0.008812000043690205,
        0.32850098609924316
      ],
      "type": "VEC2"
    },
    {
      "bufferView": 1,
      "byteOffset": 115800,
      "componentType": 5126,
      "count": 305,
      "max": [
        0.6230999827384949,
        0.9976029992103577
      ],
      "min": [
        0.008812000043690205,
        0.32850098609924316
      ],
      "type": "VEC2"
    },
    {
      "bufferView": 0,
      "byteOffset": 25896,
      "componentType": 5125,
      "count": 699,
      "type": "SCALAR"
    },
    {
      "bufferView": 2,
      "byteOffset": 70944,
      "componentType": 5126,
      "count": 305,
      "max": [
        3.077899932861328,
        9.473669052124023,
        6.478869438171387
      ],
      "min": [
        1.7765607833862305,
        0.7622388601303101,
        -3.611340045928955
      ],
      "type": "VEC3"
    },
    {
      "bufferView": 2,
      "byteOffset": 74604,
      "componentType": 5126,
      "count": 305,
      "max": [
        0.9982872009277344,
        0.9977477192878723,
        1.0
      ],
      "min": [
        -0.9982858300209045,
        -0.9982873201370239,
        -1.0
      ],
      "type": "VEC3"
    },
    {
      "bufferView": 1,
      "byteOffset": 118240,
      "componentType": 5126,
      "count": 305,
      "max": [
        0.6230999827384949,
        0.9976029992103577
      ],
      "min": [
        0.008812000043690205,
        0.32850098609924316
      ],
      "type": "VEC2"
    },
    {
      "bufferView": 1,
      "byteOffset": 120680,
      "componentType": 5126,
      "count": 305,
      "max": [
        0.0,
        1.0
      ],
      "min": [
        0.0,
        1.0
      ],
      "type": "VEC2"
    },
    {
      "bufferView": 1,
      "byteOffset": 123120,
      "componentType": 5126,
      "count": 305,
      "max": [
        0.6230999827384949,
        0.9976029992103577
      ],
      "min": [
        0.008812000043690205,
        0.32850098609924316
      ],
      "type": "VEC2"
    },
    {
      "bufferView": 1,
      "byteOffset": 125560,
      "componentType": 5126,
      "count": 305,
      "max": [
        0.6230999827384949,
        0.9976029992103577
      ],
      "min": [
        0.008812000043690205,
        0.32850098609924316
      ],
      "type": "VEC2"
    },
    {
      "bufferView": 1,
      "byteOffset": 128000,
      "componentType": 5126,
      "count": 305,
      "max": [
        0.6230999827384949,
        0.9976029992103577
      ],
      "min": [
        0.008812000043690205,
        0.32850098609924316
      ],
      "type": "VEC2"
    },
    {
      "bufferView": 0,
      "byteOffset": 28692,
      "componentType": 5125,
      "count": 699,
      "type": "SCALAR"
    },
    {
      "bufferView": 3,
      "componentType": 5126,
      "count": 51,
      "max": [
        1.6666666269302368
      ],
      "min": [
        0.0
      ],
      "type": "SCALAR"
    },
    {
      "bufferView": 4,
      "componentType": 5126,
      "count": 51,
      "max": [
        8.213024685968788e-17,
        0.9335803985595703,
        8.213024685968788e-17,
        1.0
      ],
      "min": [
        -8.65917612987784e-17,
        -0.8602083921432495,
        -8.65917612987784e-17,
        -0.4890781044960022
      ],
      "type": "VEC4"
    },
    {
      "bufferView": 3,
      "byteOffset": 204,
      "componentType": 5126,
      "count": 51,
      "max": [
        1.6666666269302368
      ],
      "min": [
        0.0
      ],
      "type": "SCALAR"
    },
    {
      "bufferView": 4,
      "byteOffset": 816,
      "componentType": 5126,
      "count": 51,
      "max": [
        3.3306205680043495e-17,
        0.9335804581642151,
        8.65917612987784e-17,
        1.0
      ],
      "min": [
        -8.65917612987784e-17,
        0.0,
        -3.300978044933375e-23,
        0.35836783051490784
      ],
      "type": "VEC4"
    }
  ],
  "animations": [
    {
      "channels": [
        {
          "sampler": 0,
          "target": {
            "node": 8,
            "path": "rotation"
          }
        },
        {
          "sampler": 1,
          "target": {
            "node": 11,
            "path": "rotation"
          }
        }
      ],
      "name": "Take 001",
      "samplers": [
        {
          "input": 32,
          "interpolation": "LINEAR",
          "output": 33
        },
        {
          "input": 34,
          "interpolation": "LINEAR",
          "output": 35
        }
      ]
    }
  ],
  "asset": {
    "extras": {
      "author": "MrWilliamHB (https://sketchfab.com/aupoveldar123)",
      "license": "CC-BY-4.0 (http://creativecommons.org/licenses/by/4.0/)",
      "source": "https://sketchfab.com/3d-models/theta-class-t-2c-shuttle-swbf2-model-rip-64a70293bf934c45a5e7409bb9e97217",
      "title": "Theta-class T-2c shuttle SWBF2 Model Rip"
    },
    "generator": "Sketchfab-16.59.0",
    "version": "2.0"
  },
  "bufferViews": [
    {
      "buffer": 0,
      "byteLength": 31488,
      "name": "floatBufferViews",
      "target": 34963
    },
    {
      "buffer": 0,
      "byteLength": 130440,
      "byteOffset": 31488,
      "byteStride": 8,
      "name": "floatBufferViews",
      "target": 34962
    },
    {
      "buffer": 0,
      "byteLength": 78264,
      "byteOffset": 161928,
      "byteStride": 12,
      "name": "floatBufferViews",
      "target": 34962
    },
    {
      "buffer": 0,
      "byteLength": 408,
      "byteOffset": 240192,
      "name": "floatBufferViews"
    },
    {
      "buffer": 0,
      "byteLength": 1632,
      "byteOffset": 240600,
      "byteStride": 16,
      "name": "floatBufferViews"
    }
  ],
  "buffers": [
    {
      "byteLength": 242232,
      "uri": "scene.bin"
    }
  ],
  "images": [
    {
      "uri": "textures/01_-_Default_baseColor.png"
    },
    {
      "uri": "textures/01_-_Default_emissive.png"
    }
  ],
  "materials": [
    {
      "doubleSided": true,
      "emissiveFactor": [
        1.0,
        1.0,
        1.0
      ],
      "emissiveTexture": {
        "index": 1
      },
      "name": "01_-_Default",
      "pbrMetallicRoughness": {
        "baseColorTexture": {
          "index": 0
        },
        "metallicFactor": 0.0,
        "roughnessFactor": 0.6972772905086628
      }
    },
    {
      "doubleSided": true,
      "emissiveFactor": [
        1.0,
        1.0,
        1.0
      ],
      "emissiveTexture": {
        "index": 1
      },
      "name": "02_-_Default",
      "pbrMetallicRoughness": {
        "baseColorTexture": {
          "index": 0
        },
        "metallicFactor": 0.0,
        "roughnessFactor": 0.7859427192995102
      }
    },
    {
      "doubleSided": true,
      "emissiveFactor": [
        1.0,
        1.0,
        1.0
      ],
      "emissiveTexture": {
        "index": 1
      },
      "name": "01_-_Default_0",
      "pbrMetallicRoughness": {
        "baseColorTexture": {
          "index": 0
        },
        "metallicFactor": 0.0,
        "roughnessFactor": 0.6972772905086628
      }
    },
    {
      "doubleSided": true,
      "emissiveFactor": [
        1.0,
        1.0,
        1.0
      ],
      "emissiveTexture": {
        "index": 1
      },
      "name": "01_-_Default_1",
      "pbrMetallicRoughness": {
        "baseColorTexture": {
          "index": 0
        },
        "metallicFactor": 0.0,
        "roughnessFactor": 0.6972772905086628
      }
    }
  ],
  "meshes": [
    {
      "name": "imp_shuttleproto_mesh_01 - Default_0",
      "primitives": [
        {
          "attributes": {
            "NORMAL": 1,
            "POSITION": 0,
            "TEXCOORD_0": 2,
            "TEXCOORD_1": 3,
            "TEXCOORD_2": 4,
            "TEXCOORD_3": 5,
            "TEXCOORD_4": 6
          },
          "indices": 7,
          "material": 0,
          "mode": 4
        }
      ]
    },
    {
      "name": "imp_shuttleproto_mesh_02 - Default_0",
      "primitives": [
        {
          "attributes": {
            "NORMAL": 9,
            "POSITION": 8,
            "TEXCOORD_0": 10,
            "TEXCOORD_1": 11,
            "TEXCOORD_2": 12,
            "TEXCOORD_3": 13,
            "TEXCOORD_4": 14
          },
          "indices": 15,
          "material": 1,
          "mode": 4
        }
      ]
    },
    {
      "name": "imp_shuttleproto_L_wing_mesh_01 - Default_0",
      "primitives": [
        {
          "attributes": {
            "NORMAL": 17,
            "POSITION": 16,
            "TEXCOORD_0": 18,
            "TEXCOORD_1": 19,
            "TEXCOORD_2": 20,
            "TEXCOORD_3": 21,
            "TEXCOORD_4": 22
          },
          "indices": 23,
          "material": 2,
          "mode": 4
        }
      ]
    },
    {
      "name": "imp_shuttleproto_R_wing_mesh_01 - Default_0",
      "primitives": [
        {
          "attributes": {
            "NORMAL": 25,
            "POSITION": 24,
            "TEXCOORD_0": 26,
            "TEXCOORD_1": 27,
            "TEXCOORD_2": 28,
            "TEXCOORD_3": 29,
            "TEXCOORD_4": 30
          },
          "indices": 31,
          "material": 3,
          "mode": 4
        }
      ]
    }
  ],
  "nodes": [
    {
      "children": [
        1
      ],
      "matrix": [
        -0.9999918341636658,
        -0.004047320690006018,
        -6.061245317835818e-16,
        0.0,
        -6.045776540970782e-16,
        -3.834208852845572e-16,
        1.0,
        0.0,
        -0.004047320690006018,
        0.9999918341636658,
        3.809708292497343e-16,
        0.0,
        0.0,
        0.0,
        0.0,
        1.0
      ],
      "name": "Sketchfab_model"
    },
    {
      "children": [
        2
      ],
      "matrix": [
        0.0010000000474974513,
        0.0,
        0.0,
        0.0,
        0.0,
        0.0,
        0.0010000000474974513,
        0.0,
        0.0,
        -0.0010000000474974513,
        0.0,
        0.0,
        0.0,
        0.0,
        0.0,
        1.0
      ],
      "name": "Theta-class T-2c shuttle SWBF2 Model Rip.FBX"
    },
    {
      "children": [
        3
      ],
      "name": "Object_2"
    },
    {
      "children": [
        4
      ],
      "name": "RootNode"
    },
    {
      "children": [
        5,
        8,
        11
      ],
      "name": "imp_shuttleproto_mesh",
      "rotation": [
        -0.7071068286895752,
        -1.685874053691805e-07,
        -1.685874053691805e-07,
        0.7071068286895752
      ],
      "scale": [
        1000.0,
        1000.0,
        1000.0
      ]
    },
    {
      "children": [
        6,
        7
      ],
      "matrix": [
        -0.9999999999999886,
        -1.5099589275961932e-07,
        -1.2246467991473532e-16,
        0.0,
        -2.0228783985480653e-14,
        1.331580544218796e-07,
        0.9999999999999911,
        0.0,
        -1.5099589275961795e-07,
        0.9999999999999797,
        -1.3315805442188116e-07,
        0.0,
        0.0,
        0.0,
        0.0,
        1.0
      ],
      "name": "Object_5"
    },
    {
      "mesh": 0,
      "name": "imp_shuttleproto_mesh_01 - Default_0"
    },
    {
      "mesh": 1,
      "name": "imp_shuttleproto_mesh_02 - Default_0"
    },
    {
      "children": [
        9
      ],
      "name": "imp_shuttleproto_L_wing_mesh",
      "rotation": [
        7.91090259206196e-17,
        0.9335805177688599,
        7.91090259206196e-17,
        -0.3583679795265198
      ],
      "scale": [
        0.9999998211860657,
        0.9999998807907104,
        0.9999998211860657
      ],
      "translation": [
        -2.518310308456421,
        -1.7056883573532104,
        1.3221434354782104
      ]
    },
    {
      "children": [
        10
      ],
      "matrix": [
        -0.9999999999999886,
        -1.5099589275961932e-07,
        -1.2246467991473532e-16,
        0.0,
        -2.0228783985480653e-14,
        1.331580544218796e-07,
        0.9999999999999911,
        0.0,
        -1.5099589275961795e-07,
        0.9999999999999797,
        -1.3315805442188116e-07,
        0.0,
        2.5180795192718506,
        1.7053896188735962,
        -1.3220547437667847,
        1.0
      ],
      "name": "Object_9"
    },
    {
      "mesh": 2,
      "name": "imp_shuttleproto_L_wing_mesh_01 - Default_0"
    },
    {
      "children": [
        12
      ],
      "name": "imp_shuttleproto_R_wing_mesh",
      "rotation": [
        3.5221618489026386e-17,
        0.9335804581642151,
        3.5221618489026386e-17,
        0.35836783051490784
      ],
      "scale": [
        0.9999998807907104,
        0.9999998807907104,
        0.9999998807907104
      ],
      "translation": [
        2.518310308456421,
        -1.7055662870407104,
        1.3221434354782104
      ]
    },
    {
      "children": [
        13
      ],
      "matrix": [
        -0.9999999999999886,
        -1.5099589275961932e-07,
        -1.2246467991473532e-16,
        0.0,
        -2.0228783985480653e-14,
        1.331580544218796e-07,
        0.9999999999999911,
        0.0,
        -1.5099589275961795e-07,
        0.9999999999999797,
        -1.3315805442188116e-07,
        0.0,
        2.5180795192718506,
        1.7053896188735962,
        -1.3220547437667847,
        1.0
      ],
      "name": "Object_12"
    },
    {
      "mesh": 3,
      "name": "imp_shuttleproto_R_wing_mesh_01 - Default_0"
    }
  ],
  "samplers": [
    {
      "magFilter": 9729,
      "minFilter": 9987,
      "wrapS": 10497,
      "wrapT": 10497
    }
  ],
  "scene": 0,
  "scenes": [
    {
      "name": "Sketchfab_Scene",
      "nodes": [
        0
      ]
    }
  ],
  "textures": [
    {
      "sampler": 0,
      "source": 0
    },
    {
      "sampler": 0,
      "source": 1
    }
  ]
}
